<svg xmlns="http://www.w3.org/2000/svg" id="e2b38f13-0c95-4145-933c-d3ca5f924d3a" data-name="Layer 1" width="42" height="42.0007" viewBox="0 0 42 42.0007"><title>icon2</title><path d="M41.1111,9a.8791.8791,0,0,0-.8889.8684v27.11L28,39.964V10.978a.8859.8859,0,0,0-.53-.8155L15.22,4.8444a.8573.8573,0,0,0-.826.0744.8772.8772,0,0,0-.27.3L.6738,8.5282A.875.875,0,0,0,0,9.3752v29.75a.8692.8692,0,0,0,.3413.69A.8948.8948,0,0,0,.8889,40a.9042.9042,0,0,0,.2151-.0262L14.6182,36.648,26.24,41.6935a.8492.8492,0,0,0,.1012.1224.831.831,0,0,0,.6955.1662.8889.8889,0,0,0,.0882.0186.8607.8607,0,0,0,.4813-.1471l.0026-.003L41.3262,38.5A.873.873,0,0,0,42,37.6579V9.8684A.8791.8791,0,0,0,41.1111,9ZM26,11.6053V39.66L16,35.32V7.1121l10.0289,4.3532A.8127.8127,0,0,0,26,11.6053ZM1.7778,10.0594,14,7.0516V34.9972L1.7778,38.005Z" style="fill-rule:evenodd"></path><path d="M34,19a.8565.8565,0,0,0,.7474-.44C35.2857,17.594,40,9.0474,40,6.0455a6,6,0,1,0-12,0C28,9.0474,32.7143,17.594,33.2526,18.56A.8565.8565,0,0,0,34,19ZM34,1.7273a4.3069,4.3069,0,0,1,4.2857,4.3182c0,1.7065-2.3434,6.66-4.2857,10.2962-1.9423-3.6359-4.2857-8.59-4.2857-10.2962A4.3069,4.3069,0,0,1,34,1.7273Z" style="fill-rule:evenodd"></path><path d="M36.6406,6.2631A2.737,2.737,0,1,0,33.9036,9,2.74,2.74,0,0,0,36.6406,6.2631Zm-2.737.9123a.9123.9123,0,1,1,.9123-.9123A.9138.9138,0,0,1,33.9036,7.1754Z" style="fill-rule:evenodd"></path></svg>