<svg xmlns="http://www.w3.org/2000/svg" id="a0a46a9f-030d-48a2-8306-b251bf8fac52" data-name="Layer 1" width="41.9247" height="31.5782" viewBox="0 0 41.9247 31.5782"><title>icon3</title><path d="M22.8873,25a7.1127,7.1127,0,1,0-7.1126-7.1134A7.1206,7.1206,0,0,0,22.8873,25Zm0-12.4473a5.3347,5.3347,0,1,1-5.3344,5.3339A5.34,5.34,0,0,1,22.8873,12.5527Z" transform="translate(0.0004 -0.4219)" style="fill-rule:evenodd"></path><path d="M37.5563.4219H9.6074a.8743.8743,0,0,0-.8733.8772V3.93H.8743A.8746.8746,0,0,0,0,4.8074V27.6147A4.3821,4.3821,0,0,0,4.3676,32H37.5563a4.3822,4.3822,0,0,0,4.368-4.3854V4.8074A4.3813,4.3813,0,0,0,37.5563.4219Zm2.6213,27.1928a2.63,2.63,0,0,1-2.6213,2.6313H4.3676a2.63,2.63,0,0,1-2.6214-2.6313V9.1929H16.927a10.4812,10.4812,0,1,0,11.5631,0H40.1776ZM22.7086,9.1929a8.7724,8.7724,0,1,1-8.7332,8.7723A8.7631,8.7631,0,0,1,22.7086,9.1929Zm17.469-1.7542H1.7462V5.6845H9.6074a.8752.8752,0,0,0,.8733-.8771V2.1761H37.5563a2.6289,2.6289,0,0,1,2.6213,2.6313Z" transform="translate(0.0004 -0.4219)" style="fill-rule:evenodd"></path><path d="M2.32,2.2437h3.618a.9045.9045,0,1,0,0-1.809H2.32a.9045.9045,0,1,0,0,1.809Z" transform="translate(0.0004 -0.4219)" style="fill-rule:evenodd"></path><path d="M23,4H18.9984a1,1,0,0,0,0,2H23a1,1,0,0,0,0-2Z" transform="translate(0.0004 -0.4219)" style="fill-rule:evenodd"></path><path d="M35.9989,4H32.0011a1,1,0,1,0,0,2h3.9978a1,1,0,1,0,0-2Z" transform="translate(0.0004 -0.4219)" style="fill-rule:evenodd"></path></svg>